<svg xmlns="http://www.w3.org/2000/svg" width="521" height="107"><defs id="SvgjsDefs2127"></defs><g id="SvgjsG2128" featurekey="root" fill="#251002"></g><g id="SvgjsG2129" featurekey="symbol1" fill="#ba5757" transform="matrix(0.7291591333796709,0,0,0.7291591333796709,-1.458318266759342,9.541681733240658)"><path xmlns="http://www.w3.org/2000/svg" d="M5.087,55.193c0.622,0.258,1.273,0.383,1.918,0.383c1.299,0,2.572-0.508,3.53-1.467l43.574-43.574  c1.435-1.435,1.86-3.573,1.084-5.448C54.416,3.212,52.603,2,50.573,2H10.976C9.64,2,8.384,2.521,7.44,3.465L3.465,7.44  C2.521,8.385,2,9.64,2,10.976v39.598C2,52.604,3.212,54.416,5.087,55.193z M6,10.976c0-0.263,0.106-0.521,0.293-0.707l3.977-3.976  C10.458,6.104,10.709,6,10.976,6h39.598c0.604,0,0.848,0.432,0.925,0.618c0.076,0.186,0.209,0.663-0.217,1.089L7.707,51.281  c-0.428,0.427-0.904,0.292-1.09,0.217C6.432,51.421,6,51.177,6,50.574V10.976z"></path><path xmlns="http://www.w3.org/2000/svg" d="M94.913,44.807c-1.875-0.778-4.015-0.351-5.448,1.084L45.891,89.465c-1.435,1.435-1.86,3.573-1.084,5.448  C45.584,96.788,47.397,98,49.427,98h39.598c1.335,0,2.591-0.521,3.535-1.465l3.976-3.976c0.944-0.944,1.465-2.2,1.465-3.535V49.426  C98,47.396,96.788,45.583,94.913,44.807z M94,89.024c0,0.267-0.104,0.518-0.293,0.707l-3.976,3.976  C89.542,93.896,89.291,94,89.024,94H49.427c-0.604,0-0.848-0.432-0.925-0.617c-0.076-0.186-0.209-0.664,0.217-1.09l43.574-43.574  c0.232-0.232,0.479-0.298,0.687-0.298c0.174,0,0.318,0.046,0.403,0.082C93.568,48.579,94,48.823,94,49.426V89.024z"></path><path xmlns="http://www.w3.org/2000/svg" d="M93,2H73.201c-1.336,0-2.592,0.521-3.535,1.465L3.465,69.666C2.521,70.61,2,71.866,2,73.201V93c0,2.757,2.243,5,5,5h19.799  c1.335,0,2.591-0.521,3.535-1.465l66.201-66.201C97.479,29.39,98,28.134,98,26.799V7C98,4.243,95.757,2,93,2z M94,26.799  c0,0.263-0.106,0.521-0.293,0.708L27.506,93.707C27.316,93.896,27.065,94,26.799,94H7c-0.552,0-1-0.448-1-1V73.201  c0-0.267,0.104-0.518,0.293-0.707L72.495,6.292C72.684,6.104,72.935,6,73.201,6H93c0.552,0,1,0.449,1,1V26.799z"></path></g><g id="SvgjsG2130" featurekey="text1" fill="#ba5757" transform="matrix(4.8694508633821965,0,0,4.8694508633821965,87.5987014517016,-21.651428290049164)"><path d="M6.2 20.2 c-0.82 0 -1.68 -0.1 -2.34 -0.22 c-1.08 -0.16 -2.22 -0.44 -2.76 -0.64 l0.54 -1.38 c0.38 0.14 1.36 0.4 2.44 0.56 c1.28 0.2 2.34 0.26 3 0.14 c0.58 -0.12 1.08 -0.68 1.18 -1.36 c0.12 -0.88 -0.44 -1.7 -1.54 -2.24 c-0.62 -0.3 -1.74 -0.8 -2.64 -1.2 c-0.52 -0.24 -0.98 -0.44 -1.26 -0.58 c-0.68 -0.32 -1.24 -0.8 -1.6 -1.38 c-0.36 -0.54 -0.54 -1.18 -0.52 -1.82 c0.02 -0.58 0.22 -1.16 0.54 -1.64 c0.36 -0.52 0.86 -0.92 1.46 -1.16 c0.8 -0.32 2 -0.32 3.54 -0.02 c1.18 0.22 2.24 0.58 2.7 0.76 l-0.54 1.38 c-0.38 -0.16 -1.36 -0.48 -2.46 -0.7 c-1.22 -0.24 -2.18 -0.26 -2.7 -0.04 c-0.64 0.26 -1.04 0.82 -1.06 1.48 c-0.02 0.74 0.46 1.42 1.26 1.82 c0.28 0.12 0.72 0.32 1.24 0.54 c0.92 0.42 2.04 0.92 2.68 1.24 c0.88 0.44 1.54 1 1.94 1.7 c0.38 0.64 0.52 1.36 0.42 2.08 c-0.08 0.6 -0.36 1.2 -0.78 1.66 c-0.44 0.5 -0.98 0.8 -1.6 0.92 c-0.34 0.06 -0.74 0.1 -1.14 0.1 z M17.52 18.1 c0.14 -0.04 0.28 -0.1 0.38 -0.12 l0.44 1.4 c-0.08 0.02 -0.22 0.06 -0.36 0.12 c-0.76 0.26 -2.06 0.7 -3.32 0.7 c-0.76 0 -1.5 -0.16 -2.1 -0.6 c-0.88 -0.62 -1.32 -1.68 -1.32 -3.18 l0 -2.76 c0 -1.48 0.44 -2.54 1.32 -3.18 c1.64 -1.16 4.2 -0.3 5.42 0.12 c0.14 0.04 0.28 0.08 0.36 0.12 l-0.44 1.4 c-0.1 -0.04 -0.24 -0.08 -0.38 -0.12 c-0.54 -0.2 -1.36 -0.46 -2.18 -0.58 c-0.86 -0.12 -1.5 -0.04 -1.92 0.26 c-0.48 0.34 -0.7 1 -0.7 1.98 l0 2.76 c0 0.98 0.22 1.66 0.7 1.98 c0.42 0.3 1.06 0.4 1.92 0.28 c0.82 -0.12 1.64 -0.4 2.18 -0.58 z M23.9 9.96 l0.14 1.48 c-1.32 0.12 -2.64 1.54 -2.64 2.84 l0 5.74 l-1.48 0 l0 -9.9 l1.48 0 l0 1.04 c0.72 -0.68 1.62 -1.1 2.5 -1.2 z M25.419999999999998 20 l0 -9.9 l1.48 0 l0 9.9 l-1.48 0 z M26.159999999999997 8.48 c-0.54 0 -0.98 -0.44 -0.98 -0.98 c0 -0.56 0.44 -1 0.98 -1 c0.56 0 1 0.44 1 1 c0 0.54 -0.44 0.98 -1 0.98 z M41.699999999999996 10.76 c0.72 0.68 1.1 1.66 1.1 2.92 l0 6.32 l-1.48 0 l0 -6.32 c0 -0.84 -0.2 -1.44 -0.62 -1.82 c-0.56 -0.52 -1.42 -0.48 -1.68 -0.46 c-1.32 0.14 -2.64 1.54 -2.64 2.86 l0 5.74 l-1.46 0 l0 -6.32 c0 -0.84 -0.22 -1.44 -0.62 -1.82 c-0.58 -0.52 -1.44 -0.48 -1.68 -0.46 c-1.34 0.14 -2.64 1.54 -2.64 2.86 l0 5.74 l-1.48 0 l0 -9.9 l1.48 0 l0 1.04 c0.72 -0.68 1.62 -1.12 2.5 -1.2 c0.5 -0.06 1.8 -0.08 2.8 0.82 c0.26 0.24 0.48 0.52 0.66 0.84 c0.06 -0.08 0.12 -0.14 0.2 -0.22 c0.76 -0.82 1.76 -1.34 2.74 -1.44 c0.52 -0.06 1.82 -0.08 2.82 0.82 z M51.49999999999999 8.68 l-5.22 0 l0 3.92 l4.88 0 l0 1.48 l-4.88 0 l0 5.92 l-1.48 0 l0 -12.8 l6.7 0 l0 1.48 z M53.47999999999999 20 l0 -9.9 l1.48 0 l0 9.9 l-1.48 0 z M54.21999999999999 8.48 c-0.54 0 -0.98 -0.44 -0.98 -0.98 c0 -0.56 0.44 -1 0.98 -1 c0.56 0 1 0.44 1 1 c0 0.54 -0.44 0.98 -1 0.98 z M63.33999999999999 10.76 c0.74 0.68 1.1 1.66 1.1 2.92 l0 6.32 l-1.48 0 l0 -6.32 c0 -0.84 -0.2 -1.44 -0.6 -1.82 c-0.58 -0.52 -1.44 -0.48 -1.68 -0.46 c-1.34 0.14 -2.64 1.54 -2.64 2.86 l0 5.74 l-1.48 0 l0 -9.9 l1.48 0 l0 1.04 c0.72 -0.68 1.62 -1.12 2.5 -1.2 c0.5 -0.06 1.8 -0.08 2.8 0.82 z M67.14 10.78 c1 -0.9 2.3 -0.88 2.8 -0.84 c0.88 0.08 1.78 0.52 2.5 1.2 l0 -4.62 l1.48 0 l0 11.7 c0.5 0.52 0.68 1.24 0.68 1.78 l-1.46 0 c0 -0.3 -0.14 -0.7 -0.4 -0.84 c-0.3 -0.16 -0.84 -0.02 -1.48 0.38 c-0.78 0.48 -1.48 0.64 -2.06 0.64 c-0.62 0 -1.1 -0.18 -1.42 -0.36 c-1.06 -0.58 -1.74 -1.84 -1.74 -3.2 l0 -2.94 c0 -1.26 0.36 -2.24 1.1 -2.9 z M67.5 13.68 l0 2.94 c0 0.82 0.4 1.58 1 1.92 c0.68 0.38 1.46 0.08 1.98 -0.26 c0.8 -0.48 1.44 -0.66 1.96 -0.66 l0 -3.36 c0 -1.3 -1.3 -2.72 -2.64 -2.86 c-0.24 -0.02 -1.1 -0.06 -1.68 0.46 c-0.4 0.38 -0.62 0.98 -0.62 1.82 z M83.33999999999999 13.68 l0 1.92 l-5.92 1.38 c0.08 0.66 0.28 1.12 0.64 1.4 c0.58 0.44 1.62 0.44 3.1 0.04 c0.36 -0.12 1.26 -0.4 1.54 -0.5 l0.48 1.4 c-0.26 0.08 -1.2 0.4 -1.62 0.5 c-0.84 0.24 -1.58 0.36 -2.24 0.36 c-0.88 0 -1.58 -0.2 -2.16 -0.64 c-0.78 -0.6 -1.2 -1.58 -1.24 -2.92 l0 -2.94 c0 -0.8 0.14 -1.48 0.42 -2.04 c0.26 -0.5 0.62 -0.9 1.1 -1.2 c0.84 -0.5 1.82 -0.5 2.18 -0.5 c0.38 0 1.34 0 2.2 0.5 c0.46 0.3 0.84 0.7 1.1 1.2 c0.28 0.56 0.42 1.24 0.42 2.04 z M81.85999999999999 14.42 l0 -0.74 c0 -1 -0.26 -1.64 -0.8 -1.98 c-0.5 -0.3 -1.16 -0.3 -1.44 -0.3 s-0.92 0 -1.42 0.3 c-0.54 0.34 -0.82 0.98 -0.82 1.98 l0 1.8 z M88.91999999999999 9.96 l0.14 1.48 c-1.32 0.12 -2.64 1.54 -2.64 2.84 l0 5.74 l-1.48 0 l0 -9.9 l1.48 0 l0 1.04 c0.72 -0.68 1.62 -1.1 2.5 -1.2 z"></path></g><g id="SvgjsG2131" featurekey="text3" fill="#ba5757" transform="matrix(1.0729600910287187,0,0,1.0729600910287187,89.84120305564254,85.54077822596324)"><path d="M1.36 20 c-0.18666 0 -0.28 -0.09334 -0.28 -0.28 l0 -13.4 c0 -0.18666 0.09334 -0.28 0.28 -0.28 l7.26 0 c0.18666 0 0.28 0.09334 0.28 0.28 l0 1.84 c0 0.05334 -0.02 0.11334 -0.06 0.18 s-0.09334 0.1 -0.16 0.1 l-5.2 0 l0 3.38 l4.08 0 c0.18666 0 0.28 0.09334 0.28 0.28 l0 1.84 c0 0.18666 -0.09334 0.28 -0.28 0.28 l-4.08 0 l0 5.5 c0 0.18666 -0.09334 0.28 -0.28 0.28 l-1.84 0 z M19.804238024691358 19.8 c-0.13334 0.13334 -0.36 0.20002 -0.68 0.20002 l-5.06 0 c-0.04 0 -0.10334 -0.01 -0.19 -0.03 s-0.17666 -0.07666 -0.27 -0.17 l-1.14 -1.14 c-0.09334 -0.09334 -0.15 -0.18334 -0.17 -0.27 s-0.03 -0.15 -0.03 -0.19 l0 -10.36 c0 -0.05334 0.01 -0.12334 0.03 -0.21 s0.07666 -0.17666 0.17 -0.27 l1.14 -1.12 c0.08 -0.08 0.15666 -0.13334 0.23 -0.16 s0.17 -0.04 0.29 -0.04 l5.16 0 c0.08 0 0.16666 0.01334 0.26 0.04 s0.18 0.08 0.26 0.16 l1.12 1.12 c0.06666 0.06666 0.12 0.14332 0.16 0.22998 s0.06 0.18332 0.06 0.28998 l0 10.26 c0 0.13334 -0.02 0.23668 -0.06 0.31002 s-0.09334 0.14334 -0.16 0.21 z M18.684238024691357 17.32 c0.04 -0.04 0.05998 -0.08668 0.05998 -0.14002 l0 -8.22 c0 -0.01334 -0.0033398 -0.03334 -0.01 -0.06 s-0.02332 -0.05332 -0.04998 -0.07998 l-0.34 -0.32 c-0.04 -0.04 -0.08 -0.06 -0.12 -0.06 l-3.02 0 c-0.05334 0 -0.1 0.02 -0.14 0.06 l-0.34 0.32 c-0.04 0.04 -0.06 0.08666 -0.06 0.14 l0 8.22 c0 0.05334 0.02 0.1 0.06 0.14 l0.28 0.28 l3.4 0 z M32.048476049382714 20 c-0.08 0 -0.15334 -0.03 -0.22 -0.09 s-0.11332 -0.12334 -0.13998 -0.19 l-1.98 -4.86 l-2.24 0 l0 4.86 c0 0.18666 -0.09334 0.28 -0.28 0.28 l-1.84 0 c-0.18666 0 -0.28 -0.09334 -0.28 -0.28 l0 -13.4 c0 -0.18666 0.09334 -0.28 0.28 -0.28 l6.36 0 c0.05334 0 0.10668 0.0066602 0.16002 0.02 s0.11 0.03 0.17 0.05 s0.12334 0.06334 0.19 0.13 l1.12 1.12 c0.10666 0.10666 0.17332 0.22666 0.19998 0.36 c0.01334 0.05334 0.02 0.10668 0.02 0.16002 l0 5.08 c0 0.24 -0.07334 0.43334 -0.22 0.58 l-1.18 1.18 l2.02 4.98 c0.02666 0.06666 0.02332 0.13332 -0.01002 0.19998 s-0.11 0.1 -0.23 0.1 l-1.9 0 z M31.088476049382713 12.08 c0.04 -0.04 0.05998 -0.08666 0.05998 -0.14 l0 -3.02 c0 -0.04 -0.01334 -0.07334 -0.04 -0.1 l-0.34 -0.32 c-0.06666 -0.04 -0.11332 -0.06 -0.13998 -0.06 l-3.16 0 l0 4.02 l3.16 0 c0.05334 0 0.1 -0.02 0.14 -0.06 z  M51.21695209876543 19.8 c-0.09334 0.09334 -0.18336 0.15 -0.27002 0.17 s-0.20332 0.03 -0.34998 0.03 l-6.26 0 c-0.18666 0 -0.28 -0.09334 -0.28 -0.28 l0 -13.4 c0 -0.18666 0.09334 -0.28 0.28 -0.28 l6.36 0 c0.08 0 0.16 0.0066602 0.24 0.02 s0.17334 0.07334 0.28 0.18 l1.12 1.12 c0.12 0.12 0.18666 0.21666 0.2 0.29 s0.02 0.15 0.02 0.23 l0 10.28 c0 0.10666 -0.02334 0.2 -0.07 0.28 s-0.09666 0.15334 -0.15 0.22 z M50.07695209876543 17.32 c0.04 -0.02666 0.06 -0.07334 0.06 -0.14 l0 -8.22 c0 -0.05334 -0.02 -0.1 -0.06 -0.14 l-0.32 -0.32 c-0.04 -0.04 -0.08666 -0.06 -0.14 -0.06 l-3.16 0 l0 9.16 l3.34 0 z M63.92119012345679 19.8 c-0.13334 0.13334 -0.36 0.20002 -0.68 0.20002 l-5.06 0 c-0.04 0 -0.10334 -0.01 -0.19 -0.03 s-0.17666 -0.07666 -0.27 -0.17 l-1.14 -1.14 c-0.09334 -0.09334 -0.15 -0.18334 -0.17 -0.27 s-0.03 -0.15 -0.03 -0.19 l0 -10.36 c0 -0.05334 0.01 -0.12334 0.03 -0.21 s0.07666 -0.17666 0.17 -0.27 l1.14 -1.12 c0.08 -0.08 0.15666 -0.13334 0.23 -0.16 s0.17 -0.04 0.29 -0.04 l5.16 0 c0.08 0 0.16666 0.01334 0.26 0.04 s0.18 0.08 0.26 0.16 l1.12 1.12 c0.06666 0.06666 0.12 0.14332 0.16 0.22998 s0.06 0.18332 0.06 0.28998 l0 10.26 c0 0.13334 -0.02 0.23668 -0.06 0.31002 s-0.09334 0.14334 -0.16 0.21 z M62.80119012345679 17.32 c0.04 -0.04 0.05998 -0.08668 0.05998 -0.14002 l0 -8.22 c0 -0.01334 -0.0033398 -0.03334 -0.01 -0.06 s-0.02332 -0.05332 -0.04998 -0.07998 l-0.34 -0.32 c-0.04 -0.04 -0.08 -0.06 -0.12 -0.06 l-3.02 0 c-0.05334 0 -0.1 0.02 -0.14 0.06 l-0.34 0.32 c-0.04 0.04 -0.06 0.08666 -0.06 0.14 l0 8.22 c0 0.05334 0.02 0.1 0.06 0.14 l0.28 0.28 l3.4 0 z M71.82542814814815 20 c-0.06666 0 -0.12334 -0.02336 -0.17 -0.07002 s-0.07 -0.10332 -0.07 -0.16998 l0 -11.32 l-2.8 0 c-0.18666 0 -0.28 -0.09334 -0.28 -0.28 l0 -1.84 c0 -0.18666 0.09334 -0.28 0.28 -0.28 l8.02 0 c0.06666 0 0.13 0.02666 0.19 0.08 s0.09 0.12 0.09 0.2 l0 1.84 c0 0.08 -0.03 0.14666 -0.09 0.2 s-0.12334 0.08 -0.19 0.08 l-2.82 0 l0 11.32 c0 0.16 -0.07334 0.24 -0.22 0.24 l-1.94 0 z M88.32966617283951 20 c-0.08 0 -0.15664 -0.03002 -0.22998 -0.09002 s-0.12334 -0.13 -0.15 -0.21 l-0.78 -2.68 l-4.46 0 l-0.78 2.68 c-0.02666 0.08 -0.07666 0.15 -0.15 0.21 s-0.15 0.09 -0.23 0.09 l-1.74 0 c-0.08 0 -0.15666 -0.03 -0.23 -0.09 s-0.09668 -0.13 -0.07002 -0.21 l3.96 -13.38 c0.02666 -0.06666 0.06 -0.13332 0.1 -0.19998 s0.1 -0.1 0.18 -0.1 l2.36 0 c0.13334 0 0.23334 0.09334 0.3 0.28 l3.94 13.4 c0.02666 0.08 0.0066602 0.15 -0.06 0.21 s-0.14 0.09 -0.22 0.09 l-1.74 0 z M84.9296661728395 9.48 l-1.5 5.1 l3.02 0 z M93.69390419753086 20 c-0.18666 0 -0.27992 -0.093242 -0.27992 -0.2799 l0 -5.92 c0 -0.14666 0.02666 -0.25666 0.08 -0.33 s0.10668 -0.13668 0.16002 -0.19002 l1.12 -1.12 c0.10666 -0.10666 0.19332 -0.17 0.25998 -0.19 s0.15332 -0.03 0.25998 -0.03 l4.46 0 l0.28 -0.28 c0.04 -0.04 0.06 -0.09334 0.06 -0.16 l0 -2.5 c0 -0.04 -0.02 -0.08666 -0.06 -0.14 l-0.32 -0.34 c-0.04 -0.04 -0.08666 -0.06 -0.14 -0.06 l-3.72 0 l0 1.52 c0 0.08 -0.02666 0.15 -0.08 0.21 s-0.12 0.09 -0.2 0.09 l-1.86 0 c-0.08 0 -0.14666 -0.03 -0.2 -0.09 s-0.08 -0.13 -0.08 -0.21 l0 -2.08 c0 -0.2 0.07334 -0.37334 0.22 -0.52 l1.12 -1.12 c0.10666 -0.10666 0.19332 -0.17 0.25998 -0.19 s0.15332 -0.03 0.25998 -0.03 l5.18 0 c0.2 0 0.37334 0.07334 0.52 0.22 l1.12 1.12 c0.10666 0.10666 0.16666 0.21332 0.18 0.31998 s0.02 0.17332 0.02 0.19998 l0 4.6 c0 0.02666 -0.0066602 0.09332 -0.02 0.19998 s-0.07334 0.21332 -0.18 0.31998 l-1.14 1.12 c-0.10666 0.10666 -0.22 0.17332 -0.34 0.19998 c-0.05334 0.01334 -0.10668 0.02 -0.16002 0.02 l-4.12 0 c-0.02666 0 -0.06 0.02 -0.1 0.06 l-0.34 0.32 l-0.06 0.06 c-0.01334 0.01334 -0.02 0.04668 -0.02 0.10002 l0 2.68 l6.18 0 c0.18666 0 0.28 0.09334 0.28 0.28 l0 1.86 c0 0.18666 -0.09334 0.28 -0.28 0.28 l-8.32 0 z"></path></g></svg>
